<?xml version="1.0" encoding="utf-8"?>
<!-- Generator: Adobe Illustrator 24.0.2, SVG Export Plug-In . SVG Version: 6.00 Build 0)  -->
<svg version="1.1" id="Warstwa_2" xmlns="http://www.w3.org/2000/svg" xmlns:xlink="http://www.w3.org/1999/xlink" x="0px" y="0px"
	 viewBox="0 0 3037.3557129 2160" style="enable-background:new 0 0 3037.3557129 2160;" xml:space="preserve">
<style type="text/css">
	.st0{fill:#FAF1E0;stroke:#000000;stroke-width:8.9193268;stroke-miterlimit:10;}
	.st1{fill:#D5B096;stroke:#000000;stroke-width:8.9193268;stroke-miterlimit:10;}
	.st2{fill:#E7CBA8;stroke:#000000;stroke-width:8.2186871;stroke-miterlimit:10;}
	.st3{fill:none;stroke:#000000;stroke-width:8.2186871;stroke-miterlimit:10;}
	.st4{fill:#F2EAC0;stroke:#000000;stroke-width:8.2186871;stroke-miterlimit:10;}
	.st5{fill:#AECA54;stroke:#000000;stroke-width:8.2186871;stroke-miterlimit:10;}
	.st6{fill:#C98345;stroke:#000000;stroke-width:8.2186871;stroke-miterlimit:10;}
	.st7{fill:#A05124;stroke:#000000;stroke-width:8.2186871;stroke-miterlimit:10;}
</style>
<g>
	<rect class="st0" width="3037.3557129" height="1667.697876"/>
	<circle class="st1" cx="913.137085" cy="663.4243774" r="386.2165222"/>
	<path class="st2" d="M104.5324936,1343.9606934c0,0,73.2797623-41.0755615,99.9268875-89.9287109
		c26.6473236-48.8530273,51.0738373-81.0518799,51.0738373-81.0518799s88.8238373-108.8093262,107.6989288-272.0232544
		c0,0,134.3462524-41.0811157,276.4645081-31.0883789c0,0,55.5150757,64.3973389,89.9342651,142.1182861
		c17.7201538,40.0132446,32.4974365,73.2578735,42.6652832,96.0977173
		c14.7426147,33.1159668,35.2785034,63.4050293,61.1362915,88.8095703
		c3.3311157,3.2728271,6.7443237,6.4589844,10.2040405,9.4796143c18.3062744,15.9836426,32.225769,36.4450684,39.7990112,59.5369873
		c4.2662964,13.0085449,11.0057373,26.3487549,21.6228027,34.7539063
		c26.6471558,21.0957031,82.1710205,38.6149902,81.0606079,66.3725586
		c-165.4153442-24.4909668-298.7852173-29.276123-392.434082-28.7969971
		c-74.7962646,0.3826904-150.2327576-0.1990967-317.204834,5.5406494
		C204.2501068,1346.2636719,144.6256866,1344.1866455,104.5324936,1343.9606934z"/>
	<g>
		<line class="st3" x1="1668.8109131" y1="100.1919785" x2="2763.0910645" y2="100.1919785"/>
		<line class="st3" x1="2215.9509277" y1="189.8493805" x2="2901.0253906" y2="189.8493805"/>
		<line class="st3" x1="1351.5616455" y1="536.984436" x2="2103.3044434" y2="536.984436"/>
		<line class="st3" x1="1169.947876" y1="978.3747559" x2="1694.098877" y2="978.3747559"/>
		<line class="st3" x1="1452.713501" y1="1019.755127" x2="2195.2607422" y2="1019.755127"/>
		<line class="st3" x1="1432.0233154" y1="1279.5317383" x2="1878.0114746" y2="1279.5317383"/>
		<line class="st3" x1="0" y1="536.984436" x2="498.6667786" y2="536.984436"/>
		<line class="st3" x1="379.1235962" y1="700.2069092" x2="622.8078003" y2="700.2069092"/>
		<line class="st3" x1="0" y1="849.6359253" x2="287.1672668" y2="849.6359253"/>
		<line class="st3" x1="165.3251495" y1="879.5217285" x2="298.6618042" y2="879.5217285"/>
	</g>
	<path class="st4" d="M3037.3557129,1299.9100342c-397.7233887-24.3504639-1347.3950195,79.2233887-1347.3950195,79.2233887
		s-385.5479736,32.4672852-714.2783813-13.5279541s-702.1032104-21.6447754-702.1032104-21.6447754H0v233.2137451h3037.3557129
		V1299.9100342"/>
	<g>
		<path class="st5" d="M542.5454712,1454.7061768l-1.4173584-68.387207
			c-0.007019-0.3343506,0.0126953-0.6651611,0.0587769-0.9963379c0.0074463-0.0537109,0.015625-0.1114502,0.0244751-0.1730957
			c2.819519-19.7003174,18.592041-34.9317627,38.4160156-37.5853271
			c7.8260498-1.0474854,16.7660522-3.8341064,21.1026611-10.8022461
			c3.4049683-5.4713135,6.8487549-10.9185791,10.6912842-16.0950928l9.9014282-13.3388672
			c15.2640381-20.5629883,20.3811646-47.0866699,13.062561-71.5900879
			c-3.2789917-10.9781494-8.9956055-21.4189453-18.697998-28.5093994
			c-10.3425293-7.5582275-25.1073608-4.2077637-31.0640869,7.1004639
			c-5.3403931,10.1380615-9.5099487,27.729126-8.2419434,58.2406006c0.2561035,6.163208-0.5855103,12.3393555-2.5889893,18.177002
			c-3.2652588,9.5146484-9.3043213,17.8417969-18.2926636-5.4069824
			c-4.7938232-12.399292-7.0308838-27.3818359-7.8831177-41.8477783
			c-1.4712524-24.9727783,1.0908203-50.0222168,7.2540283-74.2749023
			c10.3328247-40.6605225,29.7267456-137.9864502-6.7640991-184.8588867
			c-11.3646851-14.5979614-44.1707153-33.0358887-71.4256897-3.7996826
			c-11.4189453,12.2489624-20.9571228,32.5841675-21.1550598,66.34375
			c-0.1101379,18.7821045,2.8252258,37.4593506,8.4007263,55.4041748l16.4566956,52.9666748
			c2.554718,8.2224121,3.2122192,16.9379883,1.708374,25.413208c-1.8435059,10.3892822-6.5861206,19.1331787-18.6990356,2.7202148
			c-3.9930725-5.4105225-7.1401367-11.3848877-9.4935608-17.6756592
			c-3.6447449-9.7424316-9.4570923-27.8817139-13.8097229-53.8624268
			c-6.8311462-40.7746582-43.5036316-20.3873291-43.5036316-20.3873291s-51.4133911,30.0445557-8.2692871,130.1928711
			c0,0,3.9179382,10.2182617,12.5584106,21.050293c10.2544861,12.8553467,25.1905823,21.067749,41.4865112,23.6202393
			c8.4296875,1.3203125,20.1864319,5.145874,23.7727051,16.1341553c0.6520691,1.9979248,0.9203491,4.1002197,0.9203491,6.2008057
			l0.2911682,167.8024902l42.1527405,2.6503906L542.5454712,1454.7061768z"/>
		<g>
			<path class="st3" d="M492.0387573,1452.041626c0,0,3.5715332,2.6484375,3.5715332,7.4637451"/>
			<line class="st3" x1="471.3746948" y1="1421.9455566" x2="479.0280457" y2="1432.0578613"/>
			<line class="st3" x1="495.6102905" y1="1434.4654541" x2="505.8147583" y2="1441.9293213"/>
			<line class="st3" x1="528.5197144" y1="1430.3724365" x2="539.9997559" y2="1438.1973877"/>
			<line class="st3" x1="495.6102905" y1="1417.6116943" x2="500.7125244" y2="1423.3901367"/>
			<line class="st3" x1="516.274353" y1="1384.1448975" x2="509.386322" y2="1400.9986572"/>
			<line class="st3" x1="530.050354" y1="1400.9986572" x2="543.3161621" y2="1392.5717773"/>
			<path class="st3" d="M459.6395569,1384.1448975c0,0,13.2658081,6.2600098,17.8578186,14.2053223"/>
			<line class="st3" x1="458.3640137" y1="1358.8642578" x2="466.5275879" y2="1363.4388428"/>
			<line class="st3" x1="519.3356934" y1="1347.5480957" x2="514.4885864" y2="1363.4388428"/>
			<line class="st3" x1="530.050354" y1="1353.5673828" x2="541.5303955" y2="1346.1035156"/>
			<path class="st3" d="M571.2924194,1340.5270996c0,0,3.024231,4.28125,5.616394,19.1636963"/>
			<line class="st3" x1="588.7896118" y1="1345.012207" x2="593.7579346" y2="1357.4482422"/>
			<line class="st3" x1="604.7746582" y1="1326.2562256" x2="615.7914429" y2="1336.0419922"/>
			<line class="st3" x1="629.8323975" y1="1262.4450684" x2="652.513916" y2="1251.4361572"/>
			<path class="st3" d="M581.8771362,1331.1490479c0,0,9.0726318,14.270874,29.8099976-35.0654297"/>
			<line class="st3" x1="615.7914429" y1="1260.5048828" x2="615.7914429" y2="1282.9476318"/>
			<path class="st3" d="M643.3200073,1294.1690674c0,0-17.6389771-4.9506836-27.5285645-1.6502686"/>
			<line class="st3" x1="629.5557251" y1="1239.7122803" x2="634.2277832" y2="1234.4316406"/>
			<line class="st3" x1="611.6871338" y1="1251.4361572" x2="621.2887573" y2="1245.6529541"/>
			<path class="st3" d="M615.7914429,1221.2299805c0,0-0.7216797-8.9111328,3.9614868-12.871582"/>
			<line class="st3" x1="601.7053833" y1="1223.8703613" x2="601.7053833" y2="1204.7279053"/>
			<path class="st3" d="M593.7579346,1237.0718994c0,0-1.984314-11.2213135-11.8807983-15.8419189"/>
			<path class="st3" d="M593.7579346,1262.4450684c0,0-0.4453735,12.9116211,4.8001709,11.5914307"/>
			<line class="st3" x1="592.6131592" y1="1296.0836182" x2="601.7053833" y2="1297.4694824"/>
			<line class="st3" x1="566.385437" y1="1274.1313477" x2="579.3244629" y2="1282.9476318"/>
			<line class="st3" x1="567.7842407" y1="1255.2242432" x2="579.3244629" y2="1265.4554443"/>
			<line class="st3" x1="553.4464722" y1="1268.288208" x2="543.3161621" y2="1276.6768799"/>
			<line class="st3" x1="556.9434814" y1="1319.9122314" x2="566.385437" y2="1326.2562256"/>
			<line class="st3" x1="534.2597046" y1="1319.9122314" x2="539.9997559" y2="1323.0842285"/>
			<line class="st3" x1="528.5197144" y1="1310.0109863" x2="537.1296997" y2="1299.1196289"/>
			<line class="st3" x1="500.7125244" y1="1287.8983154" x2="505.8147583" y2="1301.4299316"/>
			<line class="st3" x1="511.1324158" y1="1260.3398438" x2="516.9121094" y2="1265.4554443"/>
			<path class="st3" d="M471.3746948,1278.5394287c0,0,1.8088379,1.2670898,3.9236755,3.8543701
				c3.8619995,4.7246094,5.7865295,10.607666,5.6490784,16.5734863l-1.9194031,83.3227539
				c0,0-0.1463013,5.9040527,2.9620056,9.5709229"/>
			<path class="st3" d="M459.6395569,1311.5224609c0,0-3.1178284,11.3292236,10.5613403,17.9160156"/>
			<path class="st3" d="M452.6133728,1292.7767334c0,0,0.8580017-5.5806885,12.1540222-4.878418"/>
			<line class="st3" x1="413.5299988" y1="1278.5394287" x2="425.5341797" y2="1260.3398438"/>
			<line class="st3" x1="375.2840881" y1="1234.4316406" x2="394.2674561" y2="1234.4316406"/>
			<path class="st3" d="M373.6091003,1175.8347168c0,0,2.5125122,7.1137695,11.166687,11.3293457"/>
			<line class="st3" x1="363.559082" y1="1141.3200684" x2="375.2840881" y2="1146.0625"/>
			<line class="st3" x1="394.2674561" y1="1106.2783203" x2="395.9424744" y2="1116.2902832"/>
			<line class="st3" x1="416.8800049" y1="1089.6796875" x2="416.8800049" y2="1106.2783203"/>
			<line class="st3" x1="437.8175354" y1="1121.0327148" x2="447.3092041" y2="1112.6016846"/>
			<line class="st3" x1="426.6508484" y1="1132.0985107" x2="415.2049866" y2="1138.421875"/>
			<path class="st3" d="M397.0591431,1132.0985107c0,0-7.5552979,52.0891113,8.3755188,77.9619141
				c3.646759,5.9224854,9.9552002,9.8399658,17.0449524,11.3065186c2.1486816,0.444458,5.0838928,1.25354,5.5670776,3.7369385
				c1.339447,6.8843994,12.5625,11.9680176,12.5625,11.9680176"/>
			<path class="st3" d="M440.6091919,1243.8448486c0,0,5.4501648,8.6674805,17.7548218,9.9515381"/>
			<path class="st3" d="M475.2013855,1234.4316406c0,0,14.8552551-5.0324707,14.8552551-36.1710205"/>
			<line class="st3" x1="442.5633545" y1="1220.0897217" x2="455.7024841" y2="1208.3583984"/>
			<line class="st3" x1="428.8314209" y1="1173.8634033" x2="423.0490417" y2="1193.4453125"/>
			<line class="st3" x1="447.3092041" y1="1171.616333" x2="459.6395569" y2="1159.7386475"/>
			<path class="st3" d="M453.4743958,1111.2843018c0,0,8.3506165,6.9962158,20.2555237,9.7484131"/>
			<path class="st3" d="M495.6102905,1159.7386475c0,0,2.4929504,8.9885254,10.2044678,5.9388428"/>
			<line class="st3" x1="522.0297852" y1="1192.1612549" x2="522.0297852" y2="1201.4708252"/>
			<line class="st3" x1="514.4885864" y1="1231.9672852" x2="531.213562" y2="1220.0897217"/>
			<line class="st3" x1="476.682373" y1="1256.9406738" x2="481.9900513" y2="1271.7263184"/>
			<line class="st3" x1="442.5633545" y1="1050.9141846" x2="462.1651611" y2="1053.8033447"/>
			<line class="st3" x1="449.1329346" y1="1013.3553467" x2="464.767395" y2="1023.9489136"/>
			<line class="st3" x1="493.7981873" y1="975.15448" x2="500.7125244" y2="991.5262451"/>
			<line class="st3" x1="541.7579346" y1="975.15448" x2="537.1296997" y2="997.6255493"/>
			<line class="st3" x1="551.6220093" y1="1028.1220703" x2="566.385437" y2="1014.6394043"/>
			<line class="st3" x1="579.3244629" y1="1053.8033447" x2="567.7842407" y2="1067.2860107"/>
			<line class="st3" x1="566.385437" y1="1116.1585693" x2="581.8771362" y2="1109.3391113"/>
			<line class="st3" x1="555.7036743" y1="1163.0238037" x2="567.7842407" y2="1163.0238037"/>
			<line class="st3" x1="551.6220093" y1="1196.81604" x2="567.7842407" y2="1187.1640625"/>
			<path class="st3" d="M541.7579346,1084.6209717c0,0,1.6080933,4.1732178,11.6885376,3.210083"/>
			<line class="st3" x1="491.7573547" y1="1026.5169678" x2="503.2636414" y2="1036.4685059"/>
			<line class="st3" x1="526.4515991" y1="1031.4927979" x2="532.824707" y2="1021.3807373"/>
			<line class="st3" x1="505.8147583" y1="1092.6463623" x2="503.2636414" y2="1111.2843018"/>
			<line class="st3" x1="539.4438477" y1="1126.9949951" x2="559.0037231" y2="1132.0985107"/>
			<path class="st3" d="M481.9900513,1030.0482178c0,0-9.9608459,25.5045166,2.6243591,56.2498779
				c12.5851746,30.7454834,12.8960876,40.6968994,12.8960876,40.6968994s-1.1080933,19.9030762,5.7531433,31.4595947"/>
		</g>
	</g>
	<path class="st2" d="M998.9111328,1368.7147217c0,0,46.0877686-17.7833252,58.3681641-101.9906006h27.4841309
		c0,0,14.9532471,90.4431152,71.6761475,116.7579346c-27.1729736-1.6773682-55.1251221-3.8508301-83.8054199-6.5970459
		C1047.4094238,1374.4698486,1022.8267822,1371.7269287,998.9111328,1368.7147217z"/>
	<path class="st2" d="M3037.3557129,1088.7940674h-34.6025391
		c-54.5949707,204.5388184-108.4189453,206.8475342-108.4189453,206.8475342l143.0214844,4.2684326V1088.7940674z"/>
	<path class="st2" d="M0,1460.1175537c0,0,520.901123-27.0606689,811.8428955,40.2246094
		c73.6350708,17.0292969,148.2548218,29.487915,223.5401611,36.1383057
		c76.7341309,6.7784424,161.7591553,11.4741211,203.7647705,4.3023682
		c58.7476807-10.0300293,145.5438232-15.6264648,230.3571777-8.2762451
		c112.8232422,9.777832,226.2573242,10.302002,338.9993896-0.3709717h0.0002441
		c13.6362305-1.2908936,27.1337891-3.6584473,40.3952637-7.0858154
		c84.6520996-21.8781738,422.0527344-106.9172363,593.8588867-118.0014648
		c197.4177246-12.7366943,594.5969238,48.8237305,594.5969238,48.8237305v293.1636963H0V1460.1175537z"/>
	<g>
		<path class="st5" d="M2554.9804688,1553.0574951l-2.590332-125.6298828
			c-0.0126953-0.6140137,0.0231934-1.2218018,0.1074219-1.8302002c0.0136719-0.0987549,0.0285645-0.204834,0.0446777-0.3178711
			c5.152832-36.1901855,33.9775391-64.1710205,70.2062988-69.0456543
			c14.3022461-1.9243164,30.6403809-7.043457,38.5656738-19.8442383
			c6.2226563-10.0509033,12.5161133-20.0578613,19.5385742-29.5672607l18.0952148-24.5037842
			c27.8952637-37.7750244,37.2470703-86.5,23.8720703-131.5136719
			c-5.9924316-20.1673584-16.4396973-39.3474121-34.1711426-52.3726807
			c-18.901123-13.8847656-45.8842773-7.7297363-56.7702637,13.0437012
			c-9.7597656,18.6240234-17.3796387,50.9393311-15.0622559,106.9899902
			c0.4680176,11.3221436-1.0703125,22.6678467-4.7314453,33.3918457
			c-5.9675293,17.4788818-17.0039063,32.776001-33.4304199-9.9327393
			c-8.7607422-22.7780762-12.8491211-50.3013916-14.4067383-76.8758545
			c-2.6884766-45.8759766,1.9936523-91.8927002,13.2570801-136.4456787
			c18.8835449-74.6948242,54.326416-253.4859009-12.3615723-339.5923462
			c-32.3569336-41.7788696-94.598877-45.7261353-130.5322266-6.9801636
			c-20.8684082,22.5018921-38.2995605,59.8583374-38.661377,121.8757935
			c-0.2011719,34.50354,5.1630859,68.8140869,15.3525391,101.77948l30.0749512,97.3016968
			c4.6689453,15.1049194,5.8703613,31.1156616,3.1220703,46.6848755
			c-3.3688965,19.0855713-12.0361328,35.1484375-34.1728516,4.9973145
			c-7.2973633-9.9395752-13.0488281-20.9144287-17.3498535-32.4708862
			c-6.6606445-17.8972778-17.282959-51.2196045-25.2375488-98.9471436
			c-12.4838867-74.904541-79.5039063-37.4523315-79.5039063-37.4523315s-93.9592285,55.1928711-15.1123047,239.1689453
			c0,0,7.1601563,18.7712402,22.9509277,38.670166c18.7402344,23.6157227,46.036377,38.7021484,75.817627,43.3911133
			c15.4052734,2.4255371,36.8911133,9.4532471,43.4450684,29.6391602c1.1916504,3.670166,1.6818848,7.5321045,1.6818848,11.3909912
			l0.5322266,308.2590332l77.0351563,4.8690186L2554.9804688,1553.0574951z"/>
		<g>
			<path class="st3" d="M2462.6782227,1547.4578857c0,0,6.5270996,5.12854,6.5270996,14.4528809"/>
			<line class="st3" x1="2424.9140625" y1="1489.1800537" x2="2438.9008789" y2="1508.7614746"/>
			<line class="st3" x1="2469.2053223" y1="1513.4237061" x2="2487.854248" y2="1527.8765869"/>
			<line class="st3" x1="2529.3481445" y1="1505.4978027" x2="2550.328125" y2="1520.6501465"/>
			<line class="st3" x1="2469.2053223" y1="1480.7880859" x2="2478.5297852" y2="1491.977417"/>
			<line class="st3" x1="2506.9694824" y1="1415.9830322" x2="2494.3813477" y2="1448.6186523"/>
			<line class="st3" x1="2532.1455078" y1="1448.6186523" x2="2556.388916" y2="1432.3009033"/>
			<path class="st3" d="M2403.4680176,1415.9830322c0,0,24.2434082,12.1218262,32.635498,27.5072021"/>
			<line class="st3" x1="2401.1367188" y1="1367.0296631" x2="2416.0559082" y2="1375.8879395"/>
			<line class="st3" x1="2512.5639648" y1="1345.1171875" x2="2503.7058105" y2="1375.8879395"/>
			<line class="st3" x1="2532.1455078" y1="1356.7728271" x2="2553.1254883" y2="1342.3198242"/>
			<path class="st3" d="M2607.5163574,1331.5217285c0,0,5.5266113,8.2901611,10.263916,37.1085205"/>
			<line class="st3" x1="2639.4926758" y1="1340.206665" x2="2648.5725098" y2="1364.2878418"/>
			<line class="st3" x1="2668.7058105" y1="1303.8876953" x2="2688.8393555" y2="1322.836792"/>
			<line class="st3" x1="2714.4995117" y1="1180.3240967" x2="2755.9504395" y2="1159.0063477"/>
			<path class="st3" d="M2626.8601074,1313.3621826c0,0,16.5803223,27.6340332,54.4785156-67.9007568"/>
			<line class="st3" x1="2688.8393555" y1="1176.5670166" x2="2688.8393555" y2="1220.0251465"/>
			<path class="st3" d="M2739.1484375,1241.7541504c0,0-32.2355957-9.5863037-50.309082-3.1954346"/>
			<line class="st3" x1="2713.9938965" y1="1136.3043213" x2="2722.5322266" y2="1126.0788574"/>
			<line class="st3" x1="2681.338623" y1="1159.0063477" x2="2698.8857422" y2="1147.8078613"/>
			<path class="st3" d="M2688.8393555,1100.5152588c0,0-1.3188477-17.2554932,7.2397461-24.9245605"/>
			<line class="st3" x1="2663.0966797" y1="1105.6279297" x2="2663.0966797" y2="1068.560791"/>
			<path class="st3" d="M2648.5725098,1131.1915283c0,0-3.6264648-21.7290039-21.7124023-30.6762695"/>
			<path class="st3" d="M2648.5725098,1180.3240967c0,0-0.8139648,25.0019531,8.7724609,22.4455566"/>
			<line class="st3" x1="2646.4804688" y1="1245.4614258" x2="2663.0966797" y2="1248.1450195"/>
			<line class="st3" x1="2598.548584" y1="1202.953125" x2="2622.1950684" y2="1220.0251465"/>
			<line class="st3" x1="2601.1049805" y1="1166.3415527" x2="2622.1950684" y2="1186.1533203"/>
			<line class="st3" x1="2574.9023438" y1="1191.6385498" x2="2556.388916" y2="1207.8824463"/>
			<line class="st3" x1="2581.2932129" y1="1291.6032715" x2="2598.548584" y2="1303.8876953"/>
			<line class="st3" x1="2539.8381348" y1="1291.6032715" x2="2550.328125" y2="1297.7454834"/>
			<line class="st3" x1="2529.3481445" y1="1272.430542" x2="2545.0830078" y2="1251.3405762"/>
			<line class="st3" x1="2478.5297852" y1="1229.6114502" x2="2487.854248" y2="1255.814209"/>
			<line class="st3" x1="2497.5722656" y1="1176.2474365" x2="2508.1350098" y2="1186.1533203"/>
			<path class="st3" d="M2424.9140625,1211.4891357c0,0,3.3059082,2.4534912,7.1706543,7.4633789
				c7.0578613,9.1488037,10.5749512,20.5408936,10.3239746,32.0930176l-3.5078125,161.3457031
				c0,0-0.267334,11.4326172,5.4130859,18.5332031"/>
			<path class="st3" d="M2403.4680176,1275.3571777c0,0-5.697998,21.9379883,19.3010254,34.692627"/>
			<path class="st3" d="M2390.6274414,1239.0579834c0,0,1.5678711-10.8061523,22.2116699-9.4465332"/>
			<line class="st3" x1="2319.2016602" y1="1211.4891357" x2="2341.1394043" y2="1176.2474365"/>
			<line class="st3" x1="2249.3061523" y1="1126.0788574" x2="2283.9987793" y2="1126.0788574"/>
			<path class="st3" d="M2246.2451172,1012.6121216c0,0,4.5917969,13.7749634,20.4074707,21.9379272"/>
			<line class="st3" x1="2227.878418" y1="945.7778931" x2="2249.3061523" y2="954.9612427"/>
			<line class="st3" x1="2283.9987793" y1="877.9233398" x2="2287.0598145" y2="897.3103638"/>
			<line class="st3" x1="2325.3237305" y1="845.7816772" x2="2325.3237305" y2="877.9233398"/>
			<line class="st3" x1="2363.5876465" y1="906.4936523" x2="2380.9338379" y2="890.1677856"/>
			<line class="st3" x1="2343.1801758" y1="927.9214478" x2="2322.2626953" y2="940.1658936"/>
			<path class="st3" d="M2289.1005859,927.9214478c0,0-13.807373,100.8650513,15.3066406,150.9650269
				c6.6645508,11.4683838,18.1933594,19.0540771,31.1499023,21.8939209
				c3.9267578,0.8607178,9.2910156,2.4274902,10.1740723,7.2362061c2.4477539,13.3310547,22.958252,23.1749268,22.958252,23.1749268
				"/>
			<path class="st3" d="M2368.6894531,1144.3066406c0,0,9.9602051,16.7835693,32.4472656,19.2700195"/>
			<path class="st3" d="M2431.9074707,1126.0788574c0,0,27.1484375-9.744873,27.1484375-70.0413818"/>
			<line class="st3" x1="2372.2607422" y1="1098.307251" x2="2396.2727051" y2="1075.5906982"/>
			<line class="st3" x1="2347.1652832" y1="1008.7947388" x2="2336.5979004" y2="1046.7132568"/>
			<line class="st3" x1="2380.9338379" y1="1004.4434814" x2="2403.4680176" y2="981.4437256"/>
			<path class="st3" d="M2392.2009277,887.6168213c0,0,15.2609863,13.5476074,37.017334,18.8768311"/>
			<path class="st3" d="M2469.2053223,981.4437256c0,0,4.5559082,17.4052124,18.6489258,11.4998779"/>
			<line class="st3" x1="2517.4875488" y1="1044.2268066" x2="2517.4875488" y2="1062.25354"/>
			<line class="st3" x1="2503.7058105" y1="1121.3068848" x2="2534.2712402" y2="1098.307251"/>
			<line class="st3" x1="2434.6140137" y1="1169.6651611" x2="2444.3139648" y2="1198.2960205"/>
			<line class="st3" x1="2372.2607422" y1="770.7164917" x2="2408.0834961" y2="776.3110352"/>
			<line class="st3" x1="2384.2668457" y1="697.9876709" x2="2412.8391113" y2="718.5009155"/>
			<line class="st3" x1="2465.8935547" y1="624.015564" x2="2478.5297852" y2="655.7178955"/>
			<line class="st3" x1="2553.5412598" y1="624.015564" x2="2545.0830078" y2="667.5285645"/>
			<line class="st3" x1="2571.5681152" y1="726.5819092" x2="2598.548584" y2="700.4741211"/>
			<line class="st3" x1="2622.1950684" y1="776.3110352" x2="2601.1049805" y2="802.4188232"/>
			<line class="st3" x1="2598.548584" y1="897.0552368" x2="2626.8601074" y2="883.8502808"/>
			<line class="st3" x1="2579.0273438" y1="987.8049927" x2="2601.1049805" y2="987.8049927"/>
			<line class="st3" x1="2571.5681152" y1="1053.2402344" x2="2601.1049805" y2="1034.5500488"/>
			<path class="st3" d="M2553.5412598,835.9860229c0,0,2.9387207,8.0809937,21.361084,6.2161255"/>
			<line class="st3" x1="2462.1638184" y1="723.4738159" x2="2483.1918945" y2="742.7438965"/>
			<line class="st3" x1="2525.5686035" y1="733.1088257" x2="2537.2155762" y2="713.5280151"/>
			<line class="st3" x1="2487.854248" y1="851.5263672" x2="2483.1918945" y2="887.6168213"/>
			<line class="st3" x1="2549.3122559" y1="918.0390625" x2="2585.0583496" y2="927.9214478"/>
			<path class="st3" d="M2444.3139648,730.3115845c0,0-18.2036133,49.3869019,4.7961426,108.9221802
				s23.5678711,78.8052979,23.5678711,78.8052979s-2.0251465,38.5401001,10.513916,60.9182129"/>
		</g>
	</g>
	<path class="st6" d="M3037.3557129,2160H0v-464.1572266l865.3079224-18.8424072c0,0,292.4185181-34.8980713,532.6687622-28.3469238
		c144.6077881,3.9432373,289.3028564-2.6385498,433.0037842-19.2828369l591.9660645-68.5650635
		c0,0,313.5541992-37.2700195,614.4091797,53.8015137V2160z"/>
	<path class="st7" d="M0,1940.1126709l458.9445496,13.4624023l100.70224,6.0250244
		c43.132019,2.5804443,86.0858765,7.6131592,128.6245728,15.1953125
		c73.2415771,13.0548096,214.8336182,33.5957031,389.4040527,35.6213379
		c112.2330322,1.3022461,193.7510986,3.1715088,250.0279541,4.8671875
		c54.0510254,1.6286621,108.1287842,0.8013916,162.1352539-1.932251
		c48.2030029-2.4396973,118.4661865-0.2237549,180.7302246,23.9901123
		C1778.2687988,2079.2250977,1914.3895264,2148.0334473,2044.5269775,2160H0V1940.1126709z"/>
</g>
</svg>
